<?xml version="1.0" encoding="UTF-8" standalone="no"?>
<svg width="48px" height="48px" viewBox="0 0 48 48" version="1.1" xmlns="http://www.w3.org/2000/svg" xmlns:xlink="http://www.w3.org/1999/xlink">
    <rect x="1" y="1" width="46" height="46" rx="2" fill="#006450"/>
    <g stroke="none" stroke-width="1" fill="none" fill-rule="evenodd">
        <path d="M41.1683 42.1287C40.6228 42.677 39.8899 42.984 39.1268 42.984C38.3636 42.984 37.6308 42.677 37.0852 42.1287L30.3481 35.2078V40.0105C30.3797 40.4039 30.3284 40.7998 30.1977 41.171C30.067 41.5422 29.8599 41.8801 29.5907 42.1617C29.3214 42.4434 28.9961 42.6621 28.6372 42.8029C28.2782 42.9438 27.8939 43.0036 27.5104 42.9781C27.1272 42.9851 26.7466 42.9134 26.3907 42.7673C26.0349 42.6211 25.7111 42.4035 25.4382 42.1271C25.1653 41.8507 24.9489 41.5211 24.8017 41.1576C24.6545 40.7942 24.5794 40.4042 24.5808 40.0105V34.0334C24.5736 33.4328 24.7445 32.8443 25.0709 32.346C25.3973 31.8477 25.8637 31.4634 26.408 31.244C27.354 30.8684 28.2132 30.2938 28.9304 29.557C29.6477 28.8202 30.207 27.9376 30.5727 26.9657C30.7874 26.4074 31.1619 25.9292 31.6466 25.594C32.1314 25.2589 32.7037 25.0827 33.288 25.0886H39.1063C39.4892 25.0886 39.8682 25.1667 40.2214 25.3185C40.5745 25.4702 40.8948 25.6926 41.1636 25.9726C41.4324 26.2526 41.6443 26.5848 41.7871 26.9497C41.9298 27.3146 42.0005 27.705 41.9951 28.0982C42.018 28.4921 41.9586 28.8865 41.821 29.255C41.6833 29.6234 41.4706 29.9574 41.197 30.2344C40.9234 30.5115 40.5954 30.7253 40.2348 30.8614C39.8742 30.9976 39.4895 31.0529 39.1063 31.0238H34.4312L41.1683 37.9447C41.6996 38.5064 41.9968 39.2588 41.9968 40.042C41.9968 40.8252 41.6996 41.5775 41.1683 42.1392" fill="#ffffff"/>
        <path d="M41.1682 6.85525C41.6995 7.41695 41.9967 8.16929 41.9967 8.95248C41.9967 9.73567 41.6995 10.488 41.1682 11.0497L34.4311 17.9706H39.1063C39.4889 17.9399 39.8734 17.9938 40.234 18.1287C40.5946 18.2636 40.9228 18.4764 41.1966 18.7527C41.4704 19.0289 41.6833 19.3623 41.821 19.7302C41.9588 20.0982 42.0181 20.4922 41.9951 20.8857C42.0019 21.2793 41.9321 21.6704 41.7898 22.0359C41.6476 22.4014 41.4357 22.7341 41.1666 23.0144C40.8976 23.2947 40.5767 23.5171 40.2229 23.6683C39.8691 23.8196 39.4895 23.8967 39.1063 23.8953H33.2879C32.7033 23.9027 32.1304 23.727 31.6453 23.3917C31.1603 23.0564 30.7861 22.5773 30.5726 22.0182C30.2103 21.0444 29.6521 20.1599 28.9345 19.4227C28.2168 18.6855 27.3559 18.1121 26.4079 17.7399C25.8644 17.5193 25.3989 17.1347 25.0727 16.6367C24.7465 16.1387 24.5749 15.5508 24.5807 14.9506V8.97346C24.5793 8.57979 24.6544 8.18979 24.8016 7.82634C24.9489 7.46289 25.1653 7.1333 25.4381 6.8569C25.711 6.58049 26.0348 6.36283 26.3907 6.2167C26.7465 6.07056 27.1272 5.99889 27.5103 6.00587C27.8938 5.98043 28.2781 6.04017 28.6371 6.18105C28.9961 6.32192 29.3213 6.54062 29.5906 6.82224C29.8599 7.10386 30.0669 7.44177 30.1976 7.813C30.3284 8.18422 30.3797 8.58003 30.3481 8.97346V13.7761L37.0852 6.85525C37.6307 6.307 38.3635 6 39.1267 6C39.8899 6 40.6227 6.307 41.1682 6.85525" fill="#ffffff"/>
        <path d="M6.87722 6.85526C7.4226 6.30701 8.15523 6 8.91818 6C9.68114 6 10.4138 6.30701 10.9591 6.85526L17.6943 13.7762L17.6433 8.97348C17.6132 8.57951 17.666 8.18352 17.7978 7.81231C17.9297 7.4411 18.1377 7.10334 18.4077 6.82193C18.6777 6.54051 19.0034 6.32202 19.3627 6.18122C19.722 6.04043 20.1066 5.98062 20.4904 6.00587C20.8731 6.00031 21.253 6.07296 21.6081 6.21961C21.9632 6.36626 22.2864 6.58396 22.5589 6.86009C22.8315 7.13621 23.0478 7.46524 23.1955 7.82805C23.3432 8.19086 23.4192 8.58021 23.4192 8.97348V14.9506C23.425 15.5509 23.2535 16.1388 22.9274 16.6368C22.6012 17.1348 22.1358 17.5194 21.5925 17.74C20.6448 18.1122 19.7841 18.6856 19.0667 19.4228C18.3492 20.1601 17.7912 21.0445 17.429 22.0184C17.2131 22.5758 16.8385 23.0532 16.3542 23.3881C15.8698 23.7231 15.2983 23.8999 14.7145 23.8954H8.88757C8.50533 23.8955 8.12689 23.8173 7.77438 23.6654C7.42187 23.5135 7.10234 23.291 6.83443 23.0108C6.56653 22.7307 6.35563 22.3984 6.21404 22.0336C6.07246 21.6688 6.00303 21.2786 6.00981 20.8858C5.98541 20.4924 6.04338 20.0982 6.1798 19.7297C6.31622 19.3613 6.52793 19.0272 6.80064 18.7499C7.07336 18.4727 7.40075 18.2587 7.76075 18.1225C8.12075 17.9863 8.50499 17.9309 8.88757 17.9602H13.5716L6.8364 11.0393C6.30043 10.4802 6 9.72684 6 8.94202C6 8.15721 6.30043 7.40389 6.8364 6.84477" fill="#ffffff"/>
        <path d="M6.84133 42.1093C6.30552 41.5512 6.00518 40.7992 6.00518 40.0157C6.00518 39.2323 6.30552 38.4803 6.84133 37.9222L13.5745 31.0134H8.89188C8.50898 31.0424 8.12447 30.9871 7.7641 30.8512C7.40374 30.7153 7.07585 30.5019 6.80244 30.2253C6.52903 29.9488 6.31642 29.6154 6.17884 29.2476C6.04127 28.8798 5.98192 28.4861 6.00478 28.0929C5.99937 27.7003 6.07005 27.3106 6.21272 26.9463C6.35538 26.5821 6.56719 26.2505 6.83582 25.971C7.10445 25.6915 7.42456 25.4695 7.77752 25.318C8.13049 25.1665 8.50928 25.0885 8.89188 25.0886H14.7171C15.3007 25.0841 15.872 25.2606 16.3563 25.5949C16.8405 25.9293 17.215 26.4059 17.4307 26.9623C17.7929 27.9345 18.3507 28.8174 19.068 29.5533C19.7852 30.2892 20.6456 30.8616 21.5931 31.2332C22.1362 31.4534 22.6015 31.8374 22.9275 32.3345C23.2535 32.8316 23.425 33.4185 23.4192 34.0177V40.0157C23.4192 40.4083 23.3432 40.797 23.1956 41.1591C23.0479 41.5213 22.8316 41.8498 22.5592 42.1254C22.2868 42.401 21.9637 42.6184 21.6087 42.7648C21.2537 42.9112 20.8738 42.9837 20.4913 42.9781C20.1076 43.0033 19.7231 42.9436 19.3639 42.8031C19.0047 42.6625 18.6791 42.4444 18.4092 42.1635C18.1393 41.8826 17.9314 41.5454 17.7995 41.1749C17.6677 40.8043 17.615 40.409 17.645 40.0157V35.2215L10.922 42.1302C10.3768 42.6775 9.64441 42.984 8.88168 42.984C8.11895 42.984 7.38655 42.6775 6.84133 42.1302" fill="#ffffff"/>       
    </g>
</svg>